<?xml version="1.0" standalone="no"?>
<!DOCTYPE svg PUBLIC "-//W3C//DTD SVG 20010904//EN"
 "http://www.w3.org/TR/2001/REC-SVG-20010904/DTD/svg10.dtd">
<svg version="1.0" xmlns="http://www.w3.org/2000/svg"
 width="1315.000000pt" height="1315.000000pt" viewBox="0 0 1315.000000 1315.000000"
 preserveAspectRatio="xMidYMid meet">
<metadata>
Created by potrace 1.14, written by Peter Selinger 2001-2017
</metadata>
<g transform="translate(0.000000,1315.000000) scale(0.100000,-0.100000)"
fill="#000000" stroke="none">
<path d="M2975 13143 c-16 -1 -79 -8 -140 -14 -139 -15 -147 -16 -182 -23 -15
-3 -44 -8 -63 -11 -19 -4 -75 -15 -125 -26 -49 -12 -100 -23 -112 -25 -12 -2
-82 -23 -155 -45 -357 -109 -690 -281 -978 -502 -237 -183 -384 -333 -556
-572 -351 -485 -570 -1039 -631 -1595 -10 -93 -11 -527 -1 -635 27 -302 124
-669 253 -960 118 -267 328 -609 480 -782 5 -6 32 -37 60 -70 91 -108 299
-309 410 -398 28 -22 55 -43 60 -48 59 -48 182 -133 315 -216 151 -94 498
-254 652 -300 169 -50 189 -55 308 -80 122 -26 147 -30 195 -37 22 -3 54 -7
70 -10 79 -12 420 -15 1918 -17 1119 -2 1617 0 1618 8 1 15 -2 405 -6 720 -2
149 -6 513 -9 810 -17 1411 -27 2135 -31 2190 -9 116 -16 176 -30 260 -9 50
-18 101 -20 115 -13 77 -84 326 -110 385 -7 17 -25 62 -40 100 -40 104 -146
304 -229 430 -124 188 -289 380 -467 541 -109 100 -349 274 -474 345 -239 135
-430 221 -665 297 -127 41 -342 97 -415 107 -22 4 -47 8 -55 10 -8 3 -33 7
-55 10 -22 4 -51 8 -65 10 -14 3 -54 7 -90 11 -36 3 -78 8 -95 11 -35 5 -497
11 -540 6z"/>
<path d="M9718 13145 c-2 -2 -39 -6 -83 -9 -89 -7 -160 -15 -191 -21 -11 -2
-45 -7 -75 -11 -30 -3 -57 -8 -60 -10 -4 -2 -24 -6 -45 -10 -150 -23 -477
-120 -669 -199 -149 -61 -493 -241 -525 -275 -3 -3 -32 -23 -65 -45 -69 -46
-59 -39 -192 -144 -355 -283 -647 -674 -813 -1091 -44 -110 -100 -290 -121
-385 -7 -33 -13 -62 -14 -65 -1 -4 -12 -62 -20 -110 -1 -8 -6 -40 -10 -70 -3
-30 -9 -67 -11 -83 -13 -82 -14 -141 -39 -2297 -4 -305 -8 -663 -10 -795 -3
-242 -7 -707 -6 -736 1 -13 166 -15 1654 -13 1513 3 1805 6 1877 18 14 3 60
10 103 16 380 56 781 202 1129 413 107 64 315 209 357 248 12 12 50 44 84 72
135 111 353 342 470 497 32 41 61 80 65 85 61 78 231 364 294 495 31 66 47
103 103 235 41 96 102 296 140 460 22 94 27 120 41 213 3 20 7 48 9 62 28 165
28 692 0 825 -2 11 -6 39 -9 62 -11 89 -58 293 -96 422 -124 409 -325 789
-619 1167 -58 75 -286 304 -348 350 -21 16 -47 37 -58 47 -33 31 -204 152
-291 205 -386 239 -862 403 -1324 457 -30 4 -68 8 -85 11 -35 5 -542 14 -547
9z"/>
<path d="M4166 6373 c-1 -2 -281 -3 -622 -4 -433 -1 -646 -5 -709 -14 -128
-18 -178 -25 -195 -30 -8 -2 -31 -7 -50 -10 -107 -18 -358 -94 -515 -155 -729
-286 -1375 -888 -1724 -1605 -46 -93 -136 -299 -142 -323 -1 -4 -3 -11 -5 -17
-51 -149 -117 -391 -130 -473 -3 -19 -8 -44 -10 -56 -3 -11 -7 -39 -10 -61 -3
-22 -8 -51 -10 -65 -19 -106 -27 -594 -11 -735 13 -122 38 -262 67 -385 11
-47 22 -93 25 -103 45 -191 187 -539 308 -752 70 -125 253 -405 276 -425 4 -3
39 -46 78 -96 132 -167 361 -370 589 -523 134 -89 151 -99 319 -186 238 -124
574 -240 840 -289 263 -50 431 -64 715 -60 129 2 253 5 275 8 22 3 60 8 85 10
111 12 266 39 390 67 119 27 430 122 485 148 11 6 54 24 95 42 68 29 246 115
295 143 116 66 150 86 215 129 342 227 623 512 832 843 77 123 84 134 138 244
119 242 221 580 245 815 4 33 8 67 10 75 9 34 15 227 20 610 3 223 7 576 10
785 2 209 7 623 11 920 3 297 7 646 9 775 3 233 7 726 6 745 -1 7 -349 11
-1102 10 -605 0 -1102 -1 -1103 -2z"/>
<path d="M6769 6365 c-1 -17 2 -434 6 -715 3 -238 9 -715 20 -1700 9 -742 16
-1257 20 -1300 9 -129 19 -207 40 -320 29 -152 30 -159 51 -229 9 -31 18 -63
19 -71 3 -14 26 -80 70 -200 28 -77 120 -264 181 -367 322 -548 858 -986 1509
-1232 154 -59 319 -110 405 -127 14 -3 41 -9 60 -14 65 -17 205 -43 305 -56
28 -4 61 -8 75 -10 191 -26 636 -25 820 1 14 2 48 6 75 10 28 4 59 9 70 11 10
2 35 6 55 9 225 34 565 142 816 260 381 180 768 473 986 749 40 50 78 97 85
103 22 24 202 299 253 388 48 84 133 253 178 355 100 228 200 591 228 830 3
30 9 64 11 75 13 50 11 564 -2 665 -21 161 -23 173 -29 200 -3 14 -8 41 -10
60 -14 95 -106 421 -145 515 -5 11 -17 40 -27 65 -89 225 -217 460 -361 669
-127 183 -369 455 -523 586 -30 26 -66 57 -80 70 -47 40 -195 152 -217 163
-12 7 -28 18 -35 26 -24 23 -257 160 -367 215 -128 65 -294 133 -426 176 -105
35 -321 90 -390 100 -22 4 -47 8 -55 10 -19 5 -85 14 -175 25 -38 4 -353 9
-700 10 -2452 6 -2795 5 -2796 -5z"/>
</g>
</svg>
